<?xml version="1.0" standalone="no"?>
<!DOCTYPE svg PUBLIC "-//W3C//DTD SVG 20010904//EN"
 "http://www.w3.org/TR/2001/REC-SVG-20010904/DTD/svg10.dtd">
<svg version="1.0" xmlns="http://www.w3.org/2000/svg"
 width="378.000000pt" height="109.000000pt" viewBox="0 0 378.000000 109.000000"
 preserveAspectRatio="xMidYMid meet">

<g transform="translate(0.000000,109.000000) scale(0.100000,-0.100000)"
fill="#000000" stroke="none">
<path d="M209 916 c-85 -87 -108 -116 -113 -145 -3 -20 -9 -174 -12 -343 l-7
-306 37 -7 c20 -4 184 -5 364 -2 l327 4 6 59 c9 77 9 701 0 779 l-6 60 -245 5
-245 5 -106 -109z m588 80 c8 -5 14 -496 8 -658 l-7 -208 -349 0 -349 0 1 243
c1 133 4 283 8 332 l6 90 96 3 c108 3 109 4 109 83 0 20 3 57 6 83 l7 46 231
-6 c127 -4 232 -7 233 -8z m-497 -71 c-7 -8 -9 -18 -6 -24 3 -5 0 -12 -6 -15
-10 -5 -10 -7 0 -12 11 -5 18 -54 8 -54 -16 0 -35 14 -30 22 4 6 10 5 15 -3 5
-8 9 -9 9 -3 0 6 -8 18 -17 25 -10 7 -15 9 -10 4 4 -4 -1 -17 -10 -28 -10 -11
-12 -17 -5 -13 6 4 12 2 12 -3 0 -6 -4 -11 -9 -11 -18 0 -23 21 -9 38 12 16
11 16 -7 2 -11 -8 -23 -19 -26 -24 -4 -4 -10 -3 -14 3 -4 7 -1 20 6 29 7 9 -3
2 -22 -15 -68 -64 -49 -32 38 63 88 96 88 96 91 64 2 -17 -2 -38 -8 -45z
m-110 -105 c0 -5 -5 -10 -11 -10 -5 0 -7 5 -4 10 3 6 8 10 11 10 2 0 4 -4 4
-10z"/>
<path d="M522 920 c-109 -11 -132 -26 -132 -86 0 -67 31 -94 108 -94 l59 0 -5
-30 c-3 -25 -9 -30 -31 -30 -38 -1 -107 -35 -126 -63 -13 -21 -25 -25 -83 -29
-123 -9 -155 -44 -155 -172 0 -84 20 -128 67 -148 33 -14 94 -16 139 -4 22 5
27 3 27 -12 0 -42 29 -52 153 -52 141 0 157 9 157 89 0 55 -11 68 -61 77 -80
13 -79 13 -79 47 0 32 1 33 61 44 74 14 109 42 109 89 0 45 -39 87 -105 115
-48 20 -55 26 -55 51 0 26 3 28 43 28 67 0 87 20 87 89 0 92 -28 106 -178 91z
m143 -24 c19 -14 19 -14 0 -36 -11 -12 -14 -20 -6 -18 20 5 40 -30 23 -41 -7
-4 -12 -14 -10 -22 2 -8 -3 -13 -11 -11 -7 1 -20 -3 -28 -9 -11 -10 -17 -9
-30 3 -8 9 -12 21 -8 27 9 16 28 2 21 -15 -8 -21 -1 -17 33 17 31 31 40 46 21
34 -6 -4 -17 -2 -24 4 -10 8 -17 7 -26 -4 -9 -11 -16 -12 -25 -5 -8 7 -19 2
-35 -15 -13 -13 -27 -22 -33 -18 -6 4 -7 1 -2 -6 5 -9 10 -10 18 -2 14 14 30
14 25 0 -2 -6 -7 -10 -12 -9 -5 1 -13 -4 -17 -12 -7 -10 -9 -10 -9 0 0 7 -4
11 -9 7 -16 -10 -23 15 -9 33 7 9 -2 4 -20 -11 -38 -31 -54 -33 -72 -12 -16
19 -17 92 -2 107 24 24 219 34 247 14z m-23 -98 c-6 -6 -15 -9 -18 -5 -4 3 -4
14 0 23 5 13 9 15 18 6 9 -9 9 -15 0 -24z m-51 -1 c-13 -13 -26 -3 -16 12 3 6
11 8 17 5 6 -4 6 -10 -1 -17z m-91 -37 c0 -5 -4 -10 -10 -10 -5 0 -10 5 -10
10 0 6 5 10 10 10 6 0 10 -4 10 -10z m90 0 c0 -5 -4 -10 -10 -10 -5 0 -10 5
-10 10 0 6 5 10 10 10 6 0 10 -4 10 -10z m63 -130 c20 -14 37 -30 37 -36 0 -6
7 -17 15 -24 8 -7 15 -18 15 -24 0 -6 -7 -2 -15 8 -17 22 -21 2 -5 -24 15 -24
-7 -41 -36 -28 -13 6 -24 15 -24 20 0 12 10 10 27 -7 8 -8 19 -12 25 -9 15 9
-37 35 -56 28 -8 -3 -17 -12 -20 -19 -3 -10 0 -12 11 -8 12 5 15 2 10 -10 -4
-12 -2 -14 11 -10 14 5 15 3 5 -7 -11 -11 -17 -10 -38 10 -13 12 -22 26 -20
31 3 4 -6 2 -19 -4 -23 -11 -23 -13 -9 -29 9 -10 11 -18 5 -18 -6 0 -12 6 -15
13 -3 9 -8 9 -21 -2 -9 -8 -19 -11 -23 -7 -3 3 -1 6 6 6 7 0 9 5 5 12 -5 7 -2
8 7 3 8 -5 11 -5 7 0 -4 4 -2 15 4 24 7 9 -5 0 -26 -19 -22 -19 -36 -29 -32
-23 5 9 2 11 -8 7 -23 -9 -76 48 -76 81 0 67 46 96 146 93 56 -3 78 -8 107
-28z m-265 -94 c15 -41 61 -72 120 -82 40 -6 42 -8 42 -40 l0 -34 -59 0 c-52
0 -62 -3 -80 -26 -12 -15 -21 -37 -21 -50 0 -19 -7 -24 -46 -30 -64 -9 -114 1
-143 31 -23 23 -26 33 -26 103 0 86 16 134 48 150 12 6 51 11 87 11 l66 1 12
-34z m234 -182 c42 -5 69 -26 53 -42 -3 -3 -5 0 -5 7 0 7 -5 9 -11 6 -7 -5 -2
-16 12 -31 12 -13 18 -24 12 -24 -6 0 -13 6 -16 13 -3 8 -16 1 -38 -20 l-34
-32 -21 24 -22 24 -33 -34 c-31 -32 -69 -49 -54 -25 4 6 12 7 18 4 7 -4 9 -3
4 1 -4 5 1 18 10 29 18 20 17 20 -2 6 -11 -8 -22 -18 -25 -22 -3 -4 -17 -9
-30 -10 -24 -3 -25 0 -28 54 -3 49 0 58 20 73 23 16 43 16 190 -1z m51 -120
c-3 -8 -10 -14 -15 -14 -6 0 -4 8 3 18 13 15 12 16 -4 3 -22 -17 -34 -7 -17
14 15 18 42 2 33 -21z m-104 2 l22 -23 -41 0 c-22 0 -40 4 -40 9 0 6 7 7 16 4
8 -3 12 -2 9 4 -5 9 1 30 9 30 1 0 13 -11 25 -24z m66 -16 c3 -5 -1 -10 -9
-10 -9 0 -16 5 -16 10 0 6 4 10 9 10 6 0 13 -4 16 -10z"/>
<path d="M603 273 c-15 -5 -17 -23 -4 -23 5 0 11 7 15 15 3 8 4 15 3 14 -1 0
-8 -3 -14 -6z"/>
<path d="M1086 793 c-3 -3 -6 -139 -6 -300 l0 -294 53 3 52 3 3 101 3 101 54
47 c30 26 59 44 65 41 5 -3 48 -69 96 -145 47 -77 90 -143 96 -146 31 -19 9
25 -96 191 -64 101 -116 189 -116 194 0 5 47 50 105 101 97 85 119 110 96 110
-4 0 -37 -26 -72 -58 -133 -120 -217 -192 -223 -192 -3 0 -7 55 -8 123 -2 75
-7 121 -13 120 -6 -2 -11 -109 -13 -288 l-2 -285 -25 0 -25 0 0 284 c0 258 -4
309 -24 289z m195 -245 c11 -20 7 -26 -37 -65 l-49 -44 -3 37 c-3 31 2 41 30
65 40 34 44 35 59 7z"/>
<path d="M1612 503 l3 -298 193 -3 c126 -1 192 1 192 8 0 6 -59 10 -165 10
-91 0 -165 3 -165 8 0 4 31 57 68 117 l67 110 78 3 c97 4 102 24 8 32 l-62 5
91 148 c49 82 90 151 90 153 0 2 -90 4 -200 4 l-200 0 2 -297z m259 260 c-5
-10 -46 -76 -91 -148 -46 -71 -90 -143 -99 -159 -9 -15 -24 -38 -34 -50 l-19
-21 6 25 c3 14 6 103 6 198 l0 172 120 0 c112 0 120 -1 111 -17z m99 9 c0 -4
-7 -17 -15 -28 -19 -28 -229 -373 -274 -451 -20 -35 -39 -63 -43 -63 -3 0 -4
28 -1 63 6 58 13 73 116 237 61 96 121 192 134 213 18 29 29 37 53 37 17 0 30
-3 30 -8z"/>
<path d="M2152 503 l3 -298 50 0 50 0 3 298 c2 237 0 298 -10 295 -10 -4 -14
-71 -16 -291 l-2 -287 -25 0 -25 0 -2 287 c-2 220 -6 287 -16 291 -10 3 -12
-58 -10 -295z"/>
<path d="M2400 499 l0 -301 153 4 c173 4 199 12 275 89 60 61 85 133 80 229
-7 120 -65 206 -172 256 -43 20 -67 24 -153 24 l-103 0 0 -290 0 -290 -25 0
-25 0 0 290 c0 251 -2 290 -15 290 -13 0 -15 -40 -15 -301z m312 266 c53 -19
119 -79 150 -138 18 -34 23 -58 23 -127 0 -47 -4 -92 -10 -101 -11 -18 1 -30
-258 268 l-98 113 74 0 c40 0 94 -7 119 -15z m-87 -141 c60 -70 114 -131 120
-138 40 -42 105 -125 105 -133 0 -6 -7 -16 -15 -23 -13 -10 -19 -8 -37 16 -13
16 -82 94 -154 174 -114 127 -131 151 -136 188 -4 23 -3 42 1 42 4 0 56 -57
116 -126z m65 -188 c63 -70 116 -131 117 -135 4 -9 -62 -51 -104 -67 -31 -11
-192 -20 -193 -11 -1 1 -3 96 -6 212 l-5 210 38 -40 c21 -22 90 -98 153 -169z"/>
<path d="M3174 776 c-245 -114 -225 -482 30 -566 91 -29 194 -7 269 60 80 70
120 192 97 292 -17 73 -34 103 -89 158 -81 81 -205 104 -307 56z m207 -13 c12
-12 -38 -98 -229 -397 -18 -27 -32 -53 -32 -58 0 -4 -6 -8 -12 -8 -33 0 -88
130 -88 206 0 46 26 125 54 162 28 39 88 84 131 100 37 14 161 10 176 -5z m62
-35 c16 -12 15 -15 -5 -48 -12 -19 -27 -44 -33 -55 -25 -44 -218 -361 -225
-368 -9 -10 -50 9 -50 23 0 14 280 460 289 460 4 0 15 -6 24 -12z m74 -85 c37
-64 45 -188 16 -254 -47 -106 -140 -169 -248 -169 -72 0 -95 11 -79 37 169
284 269 441 275 437 5 -3 21 -26 36 -51z"/>
</g>
</svg>
